<svg version="1.1" id="Layer_1" xmlns="http://www.w3.org/2000/svg" xmlns:xlink="http://www.w3.org/1999/xlink" viewBox="-51.2 -51.2 614.40 614.40" xml:space="preserve" fill="#000000"><g id="SVGRepo_bgCarrier" stroke-width="0"><path transform="translate(-51.2, -51.2), scale(19.2)" d="M16,30.85153149233924C18.059406229504862,30.78575965276221,20.426794943563454,30.694581763614,21.901986838082742,29.256079477432507C23.458181308049184,27.738589236937933,23.252602732823405,25.19896918043973,23.91856594148887,23.12990879875571C24.36611676615952,21.73942706032498,24.23358670309737,20.081279424201487,25.205922202457515,18.991185445566263C27.007459999127605,16.971465394487023,31.1041913874901,16.970992227675765,31.755324886482363,14.344048626443993C32.284907326621784,12.207492598222386,29.162995384290973,10.856357080022997,27.608603272301597,9.297769775821106C26.309877807541653,7.995539144691663,24.821603217774637,6.987053324622592,23.336362174390388,5.902363741140487C21.848163916562974,4.815514468012776,20.634859654295084,2.7983609085798684,18.793062655756724,2.859673332067082C16.800143029912473,2.9260165458809353,15.690957061633076,5.298795374427669,13.92030814373546,6.215819074580692C12.636111219776945,6.880908016284526,11.205447163789698,7.066465391695507,9.826802669107652,7.5033228022588645C7.970501783284829,8.09153738646467,5.344804640643265,7.60070115712117,4.321525272362507,9.257429472274243C3.312813111471729,10.89057292321156,5.596437953034833,12.980311379534628,5.275062528583343,14.872763648794546C4.923743003011761,16.941544839945067,2.3029521591131523,18.31524282897024,2.4276113798794476,20.40993638760452C2.5443919539743027,22.372242222876086,4.644402868307822,23.58279591046783,5.8841993427163946,25.108307823128897C7.17488359763546,26.696434783485326,8.148103902362726,28.62811586213683,9.92774671750194,29.638504172951198C11.742534553542853,30.668845992413665,13.914185635276542,30.918146736004424,16,30.85153149233924" fill="#bacdd4" strokewidth="0"></path></g><g id="SVGRepo_tracerCarrier" stroke-linecap="round" stroke-linejoin="round"></g><g id="SVGRepo_iconCarrier"> <rect x="218.56" y="327.192" style="fill:#85A1A6;" width="34.012" height="116.197"></rect> <rect x="218.56" y="402.684" style="opacity:0.15;fill:#333333;enable-background:new ;" width="34.012" height="40.716"></rect> <path style="fill:#293133;" d="M289.329,424.485H181.79c-25.439,0-46.062,20.623-46.062,46.062l0,0h199.665l0,0 C335.392,445.108,314.77,424.485,289.329,424.485z"></path> <g> <path style="fill:#85A1A6;" d="M345.846,470.548H125.273c-9.189,0-16.638,7.449-16.638,16.638l0,0 c0,9.189,7.449,16.638,16.638,16.638h220.574c9.189,0,16.638-7.449,16.638-16.638l0,0 C362.485,477.997,355.036,470.548,345.846,470.548z"></path> <path style="fill:#85A1A6;" d="M355.914,58.029c6.374,6.374,12.131,13.131,17.283,20.191l19.159-19.159 c10.348-10.348,10.348-27.126,0-37.473l0,0c-10.348-10.348-27.126-10.348-37.473,0l-19.159,19.159 C342.783,45.898,349.54,51.655,355.914,58.029z"></path> </g> <path style="opacity:0.15;fill:#333333;enable-background:new ;" d="M388.709,62.707C378,48.562,365.38,35.943,351.236,25.233 l-15.513,15.513c7.061,5.152,13.817,10.909,20.191,17.283s12.131,13.131,17.283,20.191L388.709,62.707z"></path> <path style="fill:#85A1A6;" d="M115.206,298.736c-6.374-6.374-12.131-13.131-17.283-20.191l-19.159,19.159 c-10.348,10.348-10.348,27.126,0,37.473l0,0c10.348,10.348,27.126,10.348,37.473,0l19.159-19.159 C128.337,310.867,121.58,305.11,115.206,298.736z"></path> <path style="opacity:0.15;fill:#333333;enable-background:new ;" d="M97.924,278.545l-15.513,15.513 c10.709,14.144,23.329,26.764,37.473,37.473l15.513-15.513c-7.061-5.152-13.817-10.909-20.191-17.283 C108.832,292.362,103.075,285.606,97.924,278.545z"></path> <circle style="fill:#4DA3FF;" cx="235.555" cy="178.378" r="170.202"></circle> <path style="fill:#99FFB1;" d="M214.117,56.648h-97.496c-31.626,30.904-51.267,74.023-51.267,121.735 c0,43.4,16.253,82.999,42.993,113.063h83.967c12.967,0,23.48-10.512,23.48-23.48c0-12.967-10.512-23.48-23.48-23.48h-54.91 c-12.967,0-23.479-10.512-23.479-23.479l0,0c0-12.967,10.512-23.48,23.479-23.48h54.91c12.967,0,23.48-10.512,23.48-23.48l0,0 c0-12.967-10.512-23.479-23.48-23.479h-44.009c-12.967,0-23.479-10.512-23.479-23.479l0,0c0-12.967,10.512-23.48,23.479-23.48 h65.811c12.967,0,23.48-10.512,23.48-23.48l0,0C237.596,67.16,227.084,56.648,214.117,56.648z"></path> <path style="opacity:0.15;fill:#293133;enable-background:new ;" d="M102.419,178.383c0-87.739,66.39-159.962,151.673-169.198 c-6.087-0.66-12.269-1.008-18.532-1.008c-94.002,0-170.206,76.203-170.206,170.206s76.203,170.206,170.206,170.206 c6.263,0,12.445-0.349,18.532-1.008C168.809,338.344,102.419,266.121,102.419,178.383z"></path> <path style="fill:#99FFB1;" d="M405.765,178.383c0-31.276-8.444-60.576-23.165-85.761h-96.986c-12.967,0-23.48,10.512-23.48,23.48 s10.512,23.48,23.48,23.48h54.91c12.967,0,23.479,10.512,23.479,23.479l0,0c0,12.967-10.512,23.48-23.479,23.48h-54.91 c-12.967,0-23.48,10.512-23.48,23.48l0,0c0,12.967,10.512,23.479,23.48,23.479h111.022 C402.551,216.213,405.765,197.674,405.765,178.383z"></path> <path style="fill:#56D676;" d="M294.689,270.113h-24.318c-9.834,0-17.806,7.972-17.806,17.806l0,0 c0,9.834,7.972,17.806,17.806,17.806h24.318c9.834,0,17.806-7.972,17.806-17.806l0,0 C312.495,278.085,304.523,270.113,294.689,270.113z"></path> <g> <path style="fill:#26150C;" d="M298.739,261.937h-24.318c-14.328,0-25.982,11.655-25.982,25.982s11.655,25.982,25.982,25.982 h24.318c14.327,0,25.982-11.655,25.982-25.982S313.066,261.937,298.739,261.937z M298.739,297.549h-24.318 c-5.31,0-9.63-4.32-9.63-9.63s4.32-9.63,9.63-9.63h24.318c5.31,0,9.63,4.32,9.63,9.63S304.049,297.549,298.739,297.549z"></path> <path style="fill:#26150C;" d="M409.723,53.539c5.156-12.557,2.648-27.55-7.535-37.734C395.639,9.256,386.931,5.65,377.67,5.65 c-9.262,0-17.969,3.607-24.518,10.155l-14.373,14.373C310.401,11.128,276.283,0,239.611,0c-48.04,0-91.699,19.096-123.803,50.087 c-0.295,0.219-0.583,0.452-0.85,0.713C71.214,93.539,52.27,156.888,65.399,216.646c4.769,21.709,13.591,42.48,25.964,60.948 l-14.329,14.33c-13.519,13.519-13.519,35.516,0,49.036c6.548,6.548,15.256,10.155,24.518,10.155c4.617,0,9.096-0.897,13.239-2.608 c29.373,21.612,63.579,35.159,99.639,39.467v28.334h-28.59c-27.128,0-49.667,20.021-53.621,46.064h-2.895 c-13.682,0-24.814,11.131-24.814,24.814c0,13.683,11.131,24.815,24.814,24.815h220.574c13.682,0,24.814-11.131,24.814-24.815 c0-13.682-11.131-24.814-24.814-24.814h-2.895c-3.954-26.042-26.493-46.064-53.621-46.064h-28.59V387.96 c49.636-5.929,95.467-29.296,129.744-66.343c36.216-39.143,56.161-90.012,56.161-143.236 C450.696,132.995,436.543,89.946,409.723,53.539z M364.714,27.368c3.46-3.461,8.062-5.367,12.956-5.367 c4.894,0,9.495,1.906,12.955,5.366c7.144,7.145,7.144,18.769,0,25.912L378.04,65.865c-3.862-4.743-7.976-9.3-12.293-13.618 c-4.316-4.316-8.874-8.429-13.617-12.292L364.714,27.368z M344.575,131.406h-54.91c-8.439,0-15.304-6.866-15.304-15.303 c0-8.439,6.865-15.304,15.304-15.304c0,0,92.155,0,92.159,0c1.46,0,6.067,12.261,6.75,13.852c1.872,4.358,3.548,8.795,5.017,13.305 c3.185,9.782,5.423,19.871,6.704,30.078c2.682,21.375,1.173,43.309-4.649,64.062c-0.094,0.338-0.189,0.676-0.286,1.013 c-0.214,0.742-0.437,1.48-0.661,2.218H289.666c-8.439,0-15.304-6.866-15.304-15.304c0-8.438,6.865-15.303,15.304-15.303h54.91 c17.455,0,31.656-14.2,31.656-31.656C376.23,145.606,362.03,131.406,344.575,131.406z M86.217,230.612 c-0.01-0.029-0.021-0.06-0.031-0.089c-10.124-29.761-11.331-62.395-3.433-92.819c3.614-13.919,9.108-27.339,16.275-39.806 c3.539-6.155,7.482-12.078,11.794-17.718c1.911-2.5,10.232-15.356,13.331-15.356h94.014c8.439,0,15.303,6.866,15.303,15.304 c0,8.438-6.865,15.303-15.303,15.303h-65.811c-17.455,0-31.655,14.2-31.655,31.656c0,17.455,14.2,31.655,31.655,31.655h44.009 c8.439,0,15.303,6.866,15.303,15.303c0,8.439-6.865,15.304-15.303,15.304h-54.91c-17.455,0-31.655,14.2-31.655,31.655 s14.2,31.656,31.655,31.656h54.91c8.439,0,15.303,6.866,15.303,15.303c0,8.439-6.865,15.304-15.303,15.304c0,0-80.142,0-80.148,0 c-1.899,0-7.606-9.625-8.782-11.281c-3.138-4.417-6.056-8.99-8.737-13.699C93.684,249.485,89.486,240.204,86.217,230.612z M114.507,329.396c-3.46,3.461-8.062,5.367-12.955,5.367s-9.495-1.906-12.955-5.366c-7.144-7.145-7.144-18.769,0-25.912 l12.586-12.586c1.633,2.005,3.321,3.969,5.041,5.905c0.022,0.025,0.044,0.05,0.065,0.075c0.002,0.002,0.005,0.004,0.008,0.008 c2.324,2.612,4.715,5.165,7.181,7.631c4.316,4.316,8.875,8.429,13.618,12.292L114.507,329.396z M128.682,338.349l11.761-11.761 c21.763,14.61,46.906,24.55,73.987,28.392v16.51C183.593,367.489,154.275,356.158,128.682,338.349z M339.443,478.725h10.454 c4.666,0,8.462,3.795,8.462,8.462s-3.796,8.463-8.462,8.463H129.323c-4.666,0-8.462-3.796-8.462-8.463s3.796-8.462,8.462-8.462 h10.454H339.443z M293.38,432.661c18.084,0,33.25,12.738,36.998,29.712H148.842c3.748-16.973,18.915-29.712,36.998-29.712h36.766 h34.009H293.38z M230.782,379.608v-23.062c0.388,0.02,0.776,0.026,1.164,0.043c1.074,0.046,2.148,0.093,3.226,0.119 c0.565,0.014,1.128,0.013,1.692,0.022c0.915,0.014,1.828,0.035,2.747,0.035c0.919,0,1.831-0.021,2.747-0.035 c0.565-0.009,1.128-0.008,1.692-0.022c1.078-0.026,2.152-0.073,3.226-0.119c0.388-0.016,0.775-0.024,1.164-0.043v23.061 c-0.065,0.542-0.077,1.098-0.031,1.662c0.007,0.078,0.022,0.154,0.031,0.231v34.809h-17.657v-34.811 c0.009-0.076,0.023-0.152,0.029-0.229C230.859,380.705,230.847,380.15,230.782,379.608z M254.394,339.732 c-0.86,0.077-1.719,0.159-2.581,0.223c-0.16,0.012-0.323,0.02-0.484,0.031c-7.786,0.556-15.65,0.556-23.436,0 c-0.16-0.012-0.323-0.019-0.484-0.031c-0.862-0.064-1.721-0.146-2.581-0.223c-35.342-3.213-67.439-17.818-92.582-40.109h64.119 c17.455,0,31.655-14.201,31.655-31.656c0-17.455-14.2-31.655-31.655-31.655h-54.91c-8.439,0-15.303-6.866-15.303-15.304 c0-8.438,6.865-15.303,15.303-15.303h54.91c17.455,0,31.655-14.201,31.655-31.656s-14.2-31.655-31.655-31.655h-44.009 c-8.439,0-15.303-6.866-15.303-15.304c0-8.438,6.865-15.303,15.303-15.303h65.811c17.455,0,31.655-14.2,31.655-31.655 s-14.2-31.656-31.655-31.656H142.88c27.016-20.167,60.502-32.121,96.731-32.121c54.354,0,102.541,26.904,131.95,68.094h-81.895 c-17.455,0-31.656,14.2-31.656,31.656c0,17.455,14.201,31.655,31.656,31.655h54.91c8.439,0,15.304,6.866,15.304,15.303 c0,8.439-6.866,15.304-15.304,15.304h-54.91c-17.455,0-31.656,14.2-31.656,31.655c0,17.456,14.201,31.656,31.656,31.656h99.097 C365.904,295.34,314.898,334.232,254.394,339.732z M382.531,310.513c-31.18,33.7-72.708,55.143-117.741,60.982V354.98 c66.861-9.489,121.904-56.18,143.44-118.387c0.062-0.15,0.14-0.29,0.193-0.445c12.882-37.487,12.579-79.117-0.4-116.535 c-3.741-10.785-8.512-21.28-14.312-31.117c-0.182-0.312-0.384-0.607-0.601-0.888c-1.691-2.849-3.452-5.649-5.295-8.393l11.76-11.76 c22.775,32.667,34.77,70.805,34.77,110.927C434.344,227.476,415.944,274.4,382.531,310.513z"></path> </g> </g></svg>